<svg xmlns="http://www.w3.org/2000/svg" viewBox="0 0 512 512" width="512" height="512" role="img" aria-label="Yinda"><rect x="0" y="0" width="512" height="512" rx="112" fill="#FFFFFF"/><path d="M414.98 230.34 L475.12 256.00 L414.98 281.66 Z M406.51 313.27 L445.76 365.56 L380.86 357.71 Z M357.71 380.86 L365.56 445.76 L313.27 406.51 Z M281.66 414.98 L256.00 475.12 L230.34 414.98 Z M198.73 406.51 L146.44 445.76 L154.29 380.86 Z M131.14 357.71 L66.24 365.56 L105.49 313.27 Z M97.02 281.66 L36.88 256.00 L97.02 230.34 Z M105.49 198.73 L66.24 146.44 L131.14 154.29 Z M154.29 131.14 L146.44 66.24 L198.73 105.49 Z M230.34 97.02 L256.00 36.88 L281.66 97.02 Z M313.27 105.49 L365.56 66.24 L357.71 131.14 Z M380.86 154.29 L445.76 146.44 L406.51 198.73 Z" fill="#1A1036"/><circle cx="256.00" cy="256.00" r="132.00" fill="#1A1036"/></svg>
