<svg xmlns="http://www.w3.org/2000/svg" viewBox="0 0 501 100" width="1152" height="230" role="img" aria-label="Yinda"><path d="M74.52 44.75 L86.82 50.00 L74.52 55.25 Z M72.79 61.71 L80.82 72.41 L67.54 70.80 Z M62.80 75.54 L64.41 88.82 L53.71 80.79 Z M47.25 82.52 L42.00 94.82 L36.75 82.52 Z M30.29 80.79 L19.59 88.82 L21.20 75.54 Z M16.46 70.80 L3.18 72.41 L11.21 61.71 Z M9.48 55.25 L-2.82 50.00 L9.48 44.75 Z M11.21 38.29 L3.18 27.59 L16.46 29.20 Z M21.20 24.46 L19.59 11.18 L30.29 19.21 Z M36.75 17.48 L42.00 5.18 L47.25 17.48 Z M53.71 19.21 L64.41 11.18 L62.80 24.46 Z M67.54 29.20 L80.82 27.59 L72.79 38.29 Z" fill="#1A1036"/><circle cx="42.00" cy="50.00" r="27.00" fill="#1A1036"/><path d="M117.3 86.0V67.2Q111.1 65.5 106.55 61.75Q102.0 58.0 99.5 52.25Q97.0 46.5 97.0 39.3V16.0H115.7V40.099999999999994Q115.7 43.599999999999994 117.05000000000001 46.349999999999994Q118.4 49.1 120.95 50.7Q123.5 52.3 126.9 52.3Q130.5 52.3 133.0 50.7Q135.5 49.1 136.9 46.349999999999994Q138.3 43.599999999999994 138.3 40.099999999999994V16.0H157.0V39.3Q157.0 46.5 154.45 52.25Q151.9 58.0 147.35000000000002 61.75Q142.8 65.5 136.5 67.2V86.0Z" fill="#1A1036"/><path d="M172.9 86.0V34.5H190.3V86.0Z" fill="#1A1036"/><path d="M206.3 86.0V56.4Q206.3 49.8 209.55 44.55Q212.8 39.3 218.75 36.3Q224.70000000000002 33.3 232.70000000000002 33.3Q240.70000000000002 33.3 246.5 36.3Q252.3 39.3 255.4 44.55Q258.5 49.8 258.5 56.4V86.0H241.10000000000002V57.2Q241.10000000000002 54.9 240.0 52.95Q238.9 51.0 236.95 49.8Q235.0 48.6 232.4 48.6Q229.9 48.6 227.85000000000002 49.8Q225.8 51.0 224.70000000000002 52.95Q223.60000000000002 54.9 223.60000000000002 57.2V86.0Z" fill="#1A1036"/><path d="M300.79999999999995 87.3Q294.29999999999995 87.3 289.15 85.25Q284.0 83.2 280.29999999999995 79.45Q276.59999999999997 75.7 274.65 70.65Q272.7 65.6 272.7 59.4Q272.7 51.6 275.9 45.75Q279.09999999999997 39.9 284.65 36.599999999999994Q290.2 33.3 297.29999999999995 33.3Q300.2 33.3 302.75 33.949999999999996Q305.29999999999995 34.599999999999994 307.44999999999993 35.949999999999996Q309.59999999999997 37.3 311.09999999999997 39.3H311.5V13.0H328.9V59.3Q328.9 67.8 325.4 74.05Q321.9 80.3 315.59999999999997 83.8Q309.29999999999995 87.3 300.79999999999995 87.3ZM300.79999999999995 72.2Q304.0 72.2 306.29999999999995 70.65Q308.59999999999997 69.1 309.9 66.4Q311.2 63.7 311.2 60.3Q311.2 57.0 309.9 54.4Q308.59999999999997 51.8 306.29999999999995 50.25Q304.0 48.699999999999996 300.79999999999995 48.699999999999996Q297.7 48.699999999999996 295.35 50.25Q293.0 51.8 291.7 54.4Q290.4 57.0 290.4 60.3Q290.4 63.7 291.7 66.4Q293.0 69.1 295.35 70.65Q297.7 72.2 300.79999999999995 72.2Z" fill="#1A1036"/><path d="M365.79999999999995 87.3Q359.09999999999997 87.3 353.9 83.9Q348.7 80.5 345.75 74.55Q342.79999999999995 68.6 342.79999999999995 61.0Q342.79999999999995 53.0 346.34999999999997 46.7Q349.9 40.4 356.29999999999995 36.849999999999994Q362.7 33.3 371.4 33.3Q379.9 33.3 386.04999999999995 36.8Q392.2 40.3 395.6 46.4Q399.0 52.5 399.0 60.4V86.0H382.29999999999995V78.0H381.9Q380.5 80.7 378.29999999999995 82.80000000000001Q376.09999999999997 84.9 373.04999999999995 86.1Q369.99999999999994 87.3 365.79999999999995 87.3ZM370.99999999999994 72.2Q374.2 72.2 376.5 70.65Q378.79999999999995 69.1 380.09999999999997 66.4Q381.4 63.7 381.4 60.3Q381.4 56.9 380.09999999999997 54.349999999999994Q378.79999999999995 51.8 376.5 50.25Q374.2 48.699999999999996 370.99999999999994 48.699999999999996Q367.9 48.699999999999996 365.54999999999995 50.25Q363.2 51.8 361.9 54.349999999999994Q360.59999999999997 56.9 360.59999999999997 60.3Q360.59999999999997 63.7 361.9 66.4Q363.2 69.1 365.54999999999995 70.65Q367.9 72.2 370.99999999999994 72.2Z" fill="#1A1036"/><path d="M189.79 13.68 L192.89 15.00 L189.79 16.32 Z M189.00 18.74 L190.73 21.63 L187.45 20.88 Z M185.39 22.38 L185.09 25.74 L182.87 23.20 Z M180.33 23.20 L178.11 25.74 L177.81 22.38 Z M175.75 20.88 L172.47 21.63 L174.20 18.74 Z M173.41 16.32 L170.31 15.00 L173.41 13.68 Z M174.20 11.26 L172.47 8.37 L175.75 9.12 Z M177.81 7.62 L178.11 4.26 L180.33 6.80 Z M182.87 6.80 L185.09 4.26 L185.39 7.62 Z M187.45 9.12 L190.73 8.37 L189.00 11.26 Z" fill="#1A1036"/><circle cx="181.60" cy="15.00" r="6.80" fill="#1A1036"/></svg>
