<svg xmlns="http://www.w3.org/2000/svg" viewBox="0 0 325 100" width="747" height="230" role="img" aria-label="Yinda"><path d="M29.3 86.0V67.2Q23.1 65.5 18.55 61.75Q14.0 58.0 11.5 52.25Q9.0 46.5 9.0 39.3V16.0H27.700000000000003V40.099999999999994Q27.700000000000003 43.599999999999994 29.050000000000004 46.349999999999994Q30.400000000000002 49.1 32.95 50.7Q35.5 52.3 38.9 52.3Q42.5 52.3 45.0 50.7Q47.5 49.1 48.900000000000006 46.349999999999994Q50.300000000000004 43.599999999999994 50.300000000000004 40.099999999999994V16.0H69.0V39.3Q69.0 46.5 66.45 52.25Q63.900000000000006 58.0 59.35000000000001 61.75Q54.800000000000004 65.5 48.5 67.2V86.0Z" fill="#FFF7EC"/><path d="M84.9 86.0V34.5H102.30000000000001V86.0Z" fill="#FFF7EC"/><path d="M118.30000000000001 86.0V56.4Q118.30000000000001 49.8 121.55000000000001 44.55Q124.80000000000001 39.3 130.75 36.3Q136.70000000000002 33.3 144.70000000000002 33.3Q152.70000000000002 33.3 158.5 36.3Q164.3 39.3 167.4 44.55Q170.5 49.8 170.5 56.4V86.0H153.10000000000002V57.2Q153.10000000000002 54.9 152.0 52.95Q150.9 51.0 148.95 49.8Q147.0 48.6 144.4 48.6Q141.9 48.6 139.85000000000002 49.8Q137.8 51.0 136.70000000000002 52.95Q135.60000000000002 54.9 135.60000000000002 57.2V86.0Z" fill="#FFF7EC"/><path d="M212.8 87.3Q206.3 87.3 201.15 85.25Q196.0 83.2 192.3 79.45Q188.6 75.7 186.65 70.65Q184.70000000000002 65.6 184.70000000000002 59.4Q184.70000000000002 51.6 187.9 45.75Q191.1 39.9 196.65 36.599999999999994Q202.20000000000002 33.3 209.3 33.3Q212.20000000000002 33.3 214.75 33.949999999999996Q217.3 34.599999999999994 219.45000000000002 35.949999999999996Q221.60000000000002 37.3 223.10000000000002 39.3H223.5V13.0H240.9V59.3Q240.9 67.8 237.4 74.05Q233.9 80.3 227.60000000000002 83.8Q221.3 87.3 212.8 87.3ZM212.8 72.2Q216.0 72.2 218.3 70.65Q220.60000000000002 69.1 221.90000000000003 66.4Q223.20000000000002 63.7 223.20000000000002 60.3Q223.20000000000002 57.0 221.90000000000003 54.4Q220.60000000000002 51.8 218.3 50.25Q216.0 48.699999999999996 212.8 48.699999999999996Q209.70000000000002 48.699999999999996 207.35000000000002 50.25Q205.0 51.8 203.7 54.4Q202.4 57.0 202.4 60.3Q202.4 63.7 203.7 66.4Q205.0 69.1 207.35000000000002 70.65Q209.70000000000002 72.2 212.8 72.2Z" fill="#FFF7EC"/><path d="M277.8 87.3Q271.1 87.3 265.90000000000003 83.9Q260.70000000000005 80.5 257.75 74.55Q254.8 68.6 254.8 61.0Q254.8 53.0 258.35 46.7Q261.90000000000003 40.4 268.30000000000007 36.849999999999994Q274.70000000000005 33.3 283.40000000000003 33.3Q291.90000000000003 33.3 298.05000000000007 36.8Q304.20000000000005 40.3 307.6 46.4Q311.0 52.5 311.0 60.4V86.0H294.3V78.0H293.90000000000003Q292.5 80.7 290.3 82.80000000000001Q288.1 84.9 285.05 86.1Q282.0 87.3 277.8 87.3ZM283.0 72.2Q286.20000000000005 72.2 288.5 70.65Q290.8 69.1 292.1 66.4Q293.40000000000003 63.7 293.40000000000003 60.3Q293.40000000000003 56.9 292.1 54.349999999999994Q290.8 51.8 288.5 50.25Q286.20000000000005 48.699999999999996 283.0 48.699999999999996Q279.90000000000003 48.699999999999996 277.55000000000007 50.25Q275.20000000000005 51.8 273.90000000000003 54.349999999999994Q272.6 56.9 272.6 60.3Q272.6 63.7 273.90000000000003 66.4Q275.20000000000005 69.1 277.55000000000007 70.65Q279.90000000000003 72.2 283.0 72.2Z" fill="#FFF7EC"/><path d="M101.79 13.68 L104.89 15.00 L101.79 16.32 Z M101.00 18.74 L102.73 21.63 L99.45 20.88 Z M97.39 22.38 L97.09 25.74 L94.87 23.20 Z M92.33 23.20 L90.11 25.74 L89.81 22.38 Z M87.75 20.88 L84.47 21.63 L86.20 18.74 Z M85.41 16.32 L82.31 15.00 L85.41 13.68 Z M86.20 11.26 L84.47 8.37 L87.75 9.12 Z M89.81 7.62 L90.11 4.26 L92.33 6.80 Z M94.87 6.80 L97.09 4.26 L97.39 7.62 Z M99.45 9.12 L102.73 8.37 L101.00 11.26 Z" fill="#FFF7EC"/><circle cx="93.60" cy="15.00" r="6.80" fill="#FFF7EC"/></svg>
